<svg version="1.1" baseProfile="full" shape-rendering="crispEdges" width="820" height="820" xmlns="http://www.w3.org/2000/svg" xmlns:xlink="http://www.w3.org/1999/xlink"><rect x="0" y="0" width="820" height="820" fill="#FFFFFF" />
<rect x="80" y="80" width="140" height="20" fill="#807F83" />
<rect x="240" y="80" width="140" height="20" fill="#807F83" />
<rect x="420" y="80" width="60" height="20" fill="#807F83" />
<rect x="540" y="80" width="20" height="20" fill="#807F83" />
<rect x="600" y="80" width="140" height="20" fill="#807F83" />
<rect x="80" y="100" width="20" height="100" fill="#807F83" />
<rect x="200" y="100" width="20" height="100" fill="#807F83" />
<rect x="260" y="100" width="100" height="20" fill="#807F83" />
<rect x="400" y="100" width="20" height="20" fill="#807F83" />
<rect x="500" y="100" width="20" height="20" fill="#807F83" />
<rect x="540" y="100" width="40" height="20" fill="#807F83" />
<rect x="600" y="100" width="20" height="100" fill="#807F83" />
<rect x="720" y="100" width="20" height="100" fill="#807F83" />
<rect x="120" y="120" width="60" height="60" fill="#807F83" />
<rect x="240" y="120" width="100" height="20" fill="#807F83" />
<rect x="380" y="120" width="60" height="20" fill="#807F83" />
<rect x="480" y="120" width="20" height="20" fill="#807F83" />
<rect x="540" y="120" width="20" height="20" fill="#807F83" />
<rect x="640" y="120" width="60" height="60" fill="#807F83" />
<rect x="240" y="140" width="20" height="20" fill="#807F83" />
<rect x="280" y="140" width="40" height="60" fill="#807F83" />
<rect x="360" y="140" width="40" height="20" fill="#807F83" />
<rect x="460" y="140" width="20" height="20" fill="#807F83" />
<rect x="520" y="140" width="40" height="20" fill="#807F83" />
<rect x="340" y="160" width="80" height="20" fill="#807F83" />
<rect x="440" y="160" width="20" height="20" fill="#807F83" />
<rect x="540" y="160" width="20" height="20" fill="#807F83" />
<rect x="240" y="180" width="20" height="40" fill="#807F83" />
<rect x="380" y="180" width="20" height="20" fill="#807F83" />
<rect x="440" y="180" width="40" height="20" fill="#807F83" />
<rect x="80" y="200" width="140" height="20" fill="#807F83" />
<rect x="280" y="200" width="20" height="20" fill="#807F83" />
<rect x="320" y="200" width="20" height="20" fill="#807F83" />
<rect x="360" y="200" width="20" height="20" fill="#807F83" />
<rect x="400" y="200" width="20" height="20" fill="#807F83" />
<rect x="440" y="200" width="20" height="20" fill="#807F83" />
<rect x="480" y="200" width="20" height="20" fill="#807F83" />
<rect x="520" y="200" width="20" height="20" fill="#807F83" />
<rect x="560" y="200" width="20" height="20" fill="#807F83" />
<rect x="600" y="200" width="140" height="20" fill="#807F83" />
<rect x="240" y="220" width="40" height="20" fill="#807F83" />
<rect x="300" y="220" width="80" height="20" fill="#807F83" />
<rect x="420" y="220" width="40" height="20" fill="#807F83" />
<rect x="480" y="220" width="40" height="40" fill="#807F83" />
<rect x="540" y="220" width="40" height="20" fill="#807F83" />
<rect x="100" y="240" width="20" height="20" fill="#807F83" />
<rect x="140" y="240" width="20" height="20" fill="#807F83" />
<rect x="180" y="240" width="100" height="20" fill="#807F83" />
<rect x="360" y="240" width="20" height="20" fill="#807F83" />
<rect x="540" y="240" width="100" height="20" fill="#807F83" />
<rect x="660" y="240" width="40" height="20" fill="#807F83" />
<rect x="720" y="240" width="20" height="20" fill="#807F83" />
<rect x="100" y="260" width="100" height="20" fill="#807F83" />
<rect x="240" y="260" width="20" height="20" fill="#807F83" />
<rect x="280" y="260" width="40" height="20" fill="#807F83" />
<rect x="340" y="260" width="20" height="20" fill="#807F83" />
<rect x="380" y="260" width="40" height="20" fill="#807F83" />
<rect x="480" y="260" width="20" height="20" fill="#807F83" />
<rect x="520" y="260" width="20" height="40" fill="#807F83" />
<rect x="560" y="260" width="80" height="20" fill="#807F83" />
<rect x="700" y="260" width="40" height="20" fill="#807F83" />
<rect x="80" y="280" width="20" height="40" fill="#807F83" />
<rect x="200" y="280" width="20" height="20" fill="#807F83" />
<rect x="240" y="280" width="40" height="20" fill="#807F83" />
<rect x="300" y="280" width="20" height="40" fill="#807F83" />
<rect x="340" y="280" width="100" height="20" fill="#807F83" />
<rect x="460" y="280" width="20" height="20" fill="#807F83" />
<rect x="560" y="280" width="100" height="20" fill="#807F83" />
<rect x="680" y="280" width="20" height="20" fill="#807F83" />
<rect x="720" y="280" width="20" height="20" fill="#807F83" />
<rect x="220" y="300" width="60" height="20" fill="#807F83" />
<rect x="340" y="300" width="40" height="20" fill="#807F83" />
<rect x="440" y="300" width="20" height="20" fill="#807F83" />
<rect x="500" y="300" width="20" height="20" fill="#807F83" />
<rect x="540" y="300" width="20" height="20" fill="#807F83" />
<rect x="600" y="300" width="20" height="20" fill="#807F83" />
<rect x="640" y="300" width="40" height="20" fill="#807F83" />
<rect x="700" y="300" width="40" height="20" fill="#807F83" />
<rect x="100" y="320" width="20" height="20" fill="#807F83" />
<rect x="160" y="320" width="60" height="20" fill="#807F83" />
<rect x="300" y="320" width="60" height="20" fill="#807F83" />
<rect x="380" y="320" width="20" height="20" fill="#807F83" />
<rect x="440" y="320" width="100" height="20" fill="#807F83" />
<rect x="560" y="320" width="60" height="20" fill="#807F83" />
<rect x="660" y="320" width="20" height="20" fill="#807F83" />
<rect x="120" y="340" width="20" height="20" fill="#807F83" />
<rect x="180" y="340" width="20" height="20" fill="#807F83" />
<rect x="220" y="340" width="20" height="20" fill="#807F83" />
<rect x="480" y="340" width="20" height="20" fill="#807F83" />
<rect x="520" y="340" width="20" height="20" fill="#807F83" />
<rect x="560" y="340" width="20" height="20" fill="#807F83" />
<rect x="600" y="340" width="20" height="20" fill="#807F83" />
<rect x="640" y="340" width="20" height="20" fill="#807F83" />
<rect x="700" y="340" width="40" height="20" fill="#807F83" />
<rect x="80" y="360" width="40" height="20" fill="#807F83" />
<rect x="200" y="360" width="20" height="20" fill="#807F83" />
<rect x="240" y="360" width="20" height="20" fill="#807F83" />
<rect x="280" y="360" width="40" height="20" fill="#807F83" />
<rect x="520" y="360" width="140" height="20" fill="#807F83" />
<rect x="680" y="360" width="40" height="20" fill="#807F83" />
<rect x="100" y="380" width="40" height="20" fill="#807F83" />
<rect x="180" y="380" width="20" height="20" fill="#807F83" />
<rect x="300" y="380" width="20" height="20" fill="#807F83" />
<rect x="480" y="380" width="60" height="20" fill="#807F83" />
<rect x="600" y="380" width="20" height="40" fill="#807F83" />
<rect x="640" y="380" width="20" height="20" fill="#807F83" />
<rect x="700" y="380" width="20" height="60" fill="#807F83" />
<rect x="120" y="400" width="20" height="20" fill="#807F83" />
<rect x="200" y="400" width="20" height="20" fill="#807F83" />
<rect x="300" y="400" width="40" height="20" fill="#807F83" />
<rect x="480" y="400" width="40" height="20" fill="#807F83" />
<rect x="640" y="400" width="40" height="20" fill="#807F83" />
<rect x="100" y="420" width="60" height="20" fill="#807F83" />
<rect x="220" y="420" width="20" height="20" fill="#807F83" />
<rect x="260" y="420" width="40" height="20" fill="#807F83" />
<rect x="320" y="420" width="20" height="40" fill="#807F83" />
<rect x="480" y="420" width="20" height="20" fill="#807F83" />
<rect x="540" y="420" width="60" height="20" fill="#807F83" />
<rect x="620" y="420" width="20" height="20" fill="#807F83" />
<rect x="660" y="420" width="20" height="20" fill="#807F83" />
<rect x="100" y="440" width="40" height="40" fill="#807F83" />
<rect x="160" y="440" width="20" height="20" fill="#807F83" />
<rect x="200" y="440" width="40" height="20" fill="#807F83" />
<rect x="280" y="440" width="20" height="20" fill="#807F83" />
<rect x="560" y="440" width="40" height="20" fill="#807F83" />
<rect x="680" y="440" width="60" height="20" fill="#807F83" />
<rect x="220" y="460" width="20" height="20" fill="#807F83" />
<rect x="480" y="460" width="40" height="20" fill="#807F83" />
<rect x="540" y="460" width="40" height="40" fill="#807F83" />
<rect x="600" y="460" width="40" height="20" fill="#807F83" />
<rect x="700" y="460" width="40" height="20" fill="#807F83" />
<rect x="160" y="480" width="60" height="20" fill="#807F83" />
<rect x="240" y="480" width="60" height="20" fill="#807F83" />
<rect x="340" y="480" width="20" height="20" fill="#807F83" />
<rect x="420" y="480" width="20" height="20" fill="#807F83" />
<rect x="460" y="480" width="20" height="20" fill="#807F83" />
<rect x="500" y="480" width="20" height="20" fill="#807F83" />
<rect x="100" y="500" width="80" height="20" fill="#807F83" />
<rect x="320" y="500" width="20" height="20" fill="#807F83" />
<rect x="480" y="500" width="20" height="20" fill="#807F83" />
<rect x="560" y="500" width="60" height="20" fill="#807F83" />
<rect x="660" y="500" width="20" height="20" fill="#807F83" />
<rect x="700" y="500" width="40" height="20" fill="#807F83" />
<rect x="80" y="520" width="40" height="20" fill="#807F83" />
<rect x="140" y="520" width="20" height="20" fill="#807F83" />
<rect x="200" y="520" width="100" height="20" fill="#807F83" />
<rect x="340" y="520" width="60" height="20" fill="#807F83" />
<rect x="420" y="520" width="60" height="20" fill="#807F83" />
<rect x="500" y="520" width="40" height="20" fill="#807F83" />
<rect x="620" y="520" width="20" height="20" fill="#807F83" />
<rect x="720" y="520" width="20" height="20" fill="#807F83" />
<rect x="100" y="540" width="80" height="20" fill="#807F83" />
<rect x="260" y="540" width="40" height="20" fill="#807F83" />
<rect x="320" y="540" width="100" height="20" fill="#807F83" />
<rect x="460" y="540" width="60" height="20" fill="#807F83" />
<rect x="600" y="540" width="20" height="20" fill="#807F83" />
<rect x="700" y="540" width="20" height="40" fill="#807F83" />
<rect x="80" y="560" width="20" height="20" fill="#807F83" />
<rect x="120" y="560" width="40" height="20" fill="#807F83" />
<rect x="180" y="560" width="60" height="20" fill="#807F83" />
<rect x="260" y="560" width="20" height="20" fill="#807F83" />
<rect x="480" y="560" width="40" height="20" fill="#807F83" />
<rect x="560" y="560" width="100" height="20" fill="#807F83" />
<rect x="240" y="580" width="40" height="20" fill="#807F83" />
<rect x="300" y="580" width="40" height="20" fill="#807F83" />
<rect x="360" y="580" width="20" height="20" fill="#807F83" />
<rect x="400" y="580" width="20" height="20" fill="#807F83" />
<rect x="460" y="580" width="40" height="20" fill="#807F83" />
<rect x="520" y="580" width="60" height="20" fill="#807F83" />
<rect x="640" y="580" width="40" height="20" fill="#807F83" />
<rect x="720" y="580" width="20" height="20" fill="#807F83" />
<rect x="80" y="600" width="140" height="20" fill="#807F83" />
<rect x="240" y="600" width="20" height="20" fill="#807F83" />
<rect x="280" y="600" width="20" height="20" fill="#807F83" />
<rect x="340" y="600" width="80" height="20" fill="#807F83" />
<rect x="440" y="600" width="20" height="20" fill="#807F83" />
<rect x="480" y="600" width="60" height="60" fill="#807F83" />
<rect x="560" y="600" width="20" height="40" fill="#807F83" />
<rect x="600" y="600" width="20" height="20" fill="#807F83" />
<rect x="640" y="600" width="80" height="20" fill="#807F83" />
<rect x="80" y="620" width="20" height="100" fill="#807F83" />
<rect x="200" y="620" width="20" height="100" fill="#807F83" />
<rect x="240" y="620" width="60" height="20" fill="#807F83" />
<rect x="400" y="620" width="40" height="20" fill="#807F83" />
<rect x="640" y="620" width="20" height="20" fill="#807F83" />
<rect x="120" y="640" width="60" height="60" fill="#807F83" />
<rect x="280" y="640" width="20" height="20" fill="#807F83" />
<rect x="320" y="640" width="60" height="20" fill="#807F83" />
<rect x="440" y="640" width="20" height="20" fill="#807F83" />
<rect x="560" y="640" width="120" height="20" fill="#807F83" />
<rect x="700" y="640" width="40" height="20" fill="#807F83" />
<rect x="240" y="660" width="60" height="20" fill="#807F83" />
<rect x="320" y="660" width="20" height="20" fill="#807F83" />
<rect x="400" y="660" width="40" height="20" fill="#807F83" />
<rect x="500" y="660" width="20" height="20" fill="#807F83" />
<rect x="540" y="660" width="40" height="20" fill="#807F83" />
<rect x="600" y="660" width="20" height="20" fill="#807F83" />
<rect x="640" y="660" width="80" height="20" fill="#807F83" />
<rect x="260" y="680" width="20" height="20" fill="#807F83" />
<rect x="300" y="680" width="20" height="20" fill="#807F83" />
<rect x="340" y="680" width="100" height="20" fill="#807F83" />
<rect x="480" y="680" width="80" height="20" fill="#807F83" />
<rect x="640" y="680" width="40" height="20" fill="#807F83" />
<rect x="720" y="680" width="20" height="20" fill="#807F83" />
<rect x="240" y="700" width="40" height="20" fill="#807F83" />
<rect x="340" y="700" width="120" height="20" fill="#807F83" />
<rect x="500" y="700" width="20" height="40" fill="#807F83" />
<rect x="540" y="700" width="80" height="20" fill="#807F83" />
<rect x="80" y="720" width="140" height="20" fill="#807F83" />
<rect x="260" y="720" width="60" height="20" fill="#807F83" />
<rect x="360" y="720" width="20" height="20" fill="#807F83" />
<rect x="400" y="720" width="40" height="20" fill="#807F83" />
<rect x="460" y="720" width="20" height="20" fill="#807F83" />
<rect x="560" y="720" width="40" height="20" fill="#807F83" />
<rect x="640" y="720" width="40" height="20" fill="#807F83" />
<rect x="700" y="720" width="20" height="20" fill="#807F83" />
<svg xmlns="http://www.w3.org/2000/svg" width="123" height="123" fill="currentColor" class="bi bi-mortarboard" viewBox="0 0 16 16" x="348.5" y="348.5" shape-rendering="geometricPrecision"><path d="M8.211 2.047a.5.5 0 0 0-.422 0l-7.5 3.5a.5.5 0 0 0 .025.917l7.5 3a.5.5 0 0 0 .372 0L14 7.14V13a1 1 0 0 0-1 1v2h3v-2a1 1 0 0 0-1-1V6.739l.686-.275a.5.5 0 0 0 .025-.917l-7.5-3.5ZM8 8.46 1.758 5.965 8 3.052l6.242 2.913L8 8.46Z" /><path d="M4.176 9.032a.5.5 0 0 0-.656.327l-.5 1.7a.5.5 0 0 0 .294.605l4.5 1.8a.5.5 0 0 0 .372 0l4.5-1.8a.5.5 0 0 0 .294-.605l-.5-1.7a.5.5 0 0 0-.656-.327L8 10.466 4.176 9.032Zm-.068 1.873.22-.748 3.496 1.311a.5.5 0 0 0 .352 0l3.496-1.311.22.748L8 12.46l-3.892-1.556Z" /></svg>
</svg>