<svg version="1.1" baseProfile="full" shape-rendering="crispEdges" width="900" height="900" xmlns="http://www.w3.org/2000/svg" xmlns:xlink="http://www.w3.org/1999/xlink"><rect x="0" y="0" width="900" height="900" fill="#FFFFFF" />
<rect x="80" y="80" width="140" height="20" fill="#807F83" />
<rect x="260" y="80" width="60" height="20" fill="#807F83" />
<rect x="340" y="80" width="60" height="20" fill="#807F83" />
<rect x="420" y="80" width="60" height="20" fill="#807F83" />
<rect x="520" y="80" width="20" height="20" fill="#807F83" />
<rect x="560" y="80" width="20" height="20" fill="#807F83" />
<rect x="600" y="80" width="60" height="20" fill="#807F83" />
<rect x="680" y="80" width="140" height="20" fill="#807F83" />
<rect x="80" y="100" width="20" height="100" fill="#807F83" />
<rect x="200" y="100" width="20" height="100" fill="#807F83" />
<rect x="280" y="100" width="100" height="20" fill="#807F83" />
<rect x="400" y="100" width="20" height="20" fill="#807F83" />
<rect x="460" y="100" width="20" height="20" fill="#807F83" />
<rect x="500" y="100" width="20" height="20" fill="#807F83" />
<rect x="640" y="100" width="20" height="20" fill="#807F83" />
<rect x="680" y="100" width="20" height="100" fill="#807F83" />
<rect x="800" y="100" width="20" height="100" fill="#807F83" />
<rect x="120" y="120" width="60" height="60" fill="#807F83" />
<rect x="240" y="120" width="60" height="20" fill="#807F83" />
<rect x="320" y="120" width="20" height="20" fill="#807F83" />
<rect x="380" y="120" width="20" height="40" fill="#807F83" />
<rect x="420" y="120" width="140" height="20" fill="#807F83" />
<rect x="620" y="120" width="20" height="20" fill="#807F83" />
<rect x="720" y="120" width="60" height="60" fill="#807F83" />
<rect x="300" y="140" width="20" height="20" fill="#807F83" />
<rect x="340" y="140" width="20" height="20" fill="#807F83" />
<rect x="420" y="140" width="20" height="20" fill="#807F83" />
<rect x="460" y="140" width="40" height="20" fill="#807F83" />
<rect x="540" y="140" width="20" height="40" fill="#807F83" />
<rect x="580" y="140" width="80" height="20" fill="#807F83" />
<rect x="240" y="160" width="60" height="20" fill="#807F83" />
<rect x="360" y="160" width="40" height="20" fill="#807F83" />
<rect x="440" y="160" width="20" height="20" fill="#807F83" />
<rect x="480" y="160" width="20" height="20" fill="#807F83" />
<rect x="580" y="160" width="60" height="20" fill="#807F83" />
<rect x="240" y="180" width="20" height="40" fill="#807F83" />
<rect x="320" y="180" width="160" height="20" fill="#807F83" />
<rect x="500" y="180" width="20" height="20" fill="#807F83" />
<rect x="580" y="180" width="40" height="20" fill="#807F83" />
<rect x="640" y="180" width="20" height="40" fill="#807F83" />
<rect x="80" y="200" width="140" height="20" fill="#807F83" />
<rect x="280" y="200" width="20" height="20" fill="#807F83" />
<rect x="320" y="200" width="20" height="20" fill="#807F83" />
<rect x="360" y="200" width="20" height="20" fill="#807F83" />
<rect x="400" y="200" width="20" height="20" fill="#807F83" />
<rect x="440" y="200" width="20" height="20" fill="#807F83" />
<rect x="480" y="200" width="20" height="20" fill="#807F83" />
<rect x="520" y="200" width="20" height="20" fill="#807F83" />
<rect x="560" y="200" width="20" height="20" fill="#807F83" />
<rect x="600" y="200" width="20" height="40" fill="#807F83" />
<rect x="680" y="200" width="140" height="20" fill="#807F83" />
<rect x="260" y="220" width="60" height="20" fill="#807F83" />
<rect x="380" y="220" width="100" height="20" fill="#807F83" />
<rect x="500" y="220" width="80" height="20" fill="#807F83" />
<rect x="100" y="240" width="20" height="20" fill="#807F83" />
<rect x="160" y="240" width="20" height="20" fill="#807F83" />
<rect x="200" y="240" width="20" height="20" fill="#807F83" />
<rect x="240" y="240" width="20" height="20" fill="#807F83" />
<rect x="360" y="240" width="80" height="20" fill="#807F83" />
<rect x="460" y="240" width="60" height="20" fill="#807F83" />
<rect x="580" y="240" width="60" height="20" fill="#807F83" />
<rect x="660" y="240" width="20" height="20" fill="#807F83" />
<rect x="700" y="240" width="40" height="20" fill="#807F83" />
<rect x="760" y="240" width="20" height="20" fill="#807F83" />
<rect x="80" y="260" width="20" height="80" fill="#807F83" />
<rect x="140" y="260" width="20" height="20" fill="#807F83" />
<rect x="180" y="260" width="20" height="20" fill="#807F83" />
<rect x="220" y="260" width="20" height="20" fill="#807F83" />
<rect x="260" y="260" width="20" height="20" fill="#807F83" />
<rect x="300" y="260" width="20" height="20" fill="#807F83" />
<rect x="380" y="260" width="20" height="20" fill="#807F83" />
<rect x="420" y="260" width="20" height="20" fill="#807F83" />
<rect x="460" y="260" width="40" height="20" fill="#807F83" />
<rect x="540" y="260" width="20" height="20" fill="#807F83" />
<rect x="640" y="260" width="120" height="20" fill="#807F83" />
<rect x="780" y="260" width="20" height="20" fill="#807F83" />
<rect x="140" y="280" width="80" height="20" fill="#807F83" />
<rect x="240" y="280" width="40" height="20" fill="#807F83" />
<rect x="300" y="280" width="140" height="20" fill="#807F83" />
<rect x="500" y="280" width="20" height="20" fill="#807F83" />
<rect x="540" y="280" width="80" height="20" fill="#807F83" />
<rect x="640" y="280" width="40" height="20" fill="#807F83" />
<rect x="700" y="280" width="20" height="20" fill="#807F83" />
<rect x="760" y="280" width="20" height="20" fill="#807F83" />
<rect x="160" y="300" width="20" height="100" fill="#807F83" />
<rect x="240" y="300" width="120" height="20" fill="#807F83" />
<rect x="400" y="300" width="20" height="20" fill="#807F83" />
<rect x="480" y="300" width="100" height="20" fill="#807F83" />
<rect x="600" y="300" width="20" height="20" fill="#807F83" />
<rect x="660" y="300" width="20" height="20" fill="#807F83" />
<rect x="740" y="300" width="40" height="20" fill="#807F83" />
<rect x="200" y="320" width="20" height="20" fill="#807F83" />
<rect x="260" y="320" width="20" height="20" fill="#807F83" />
<rect x="300" y="320" width="20" height="20" fill="#807F83" />
<rect x="340" y="320" width="20" height="20" fill="#807F83" />
<rect x="380" y="320" width="40" height="20" fill="#807F83" />
<rect x="500" y="320" width="40" height="20" fill="#807F83" />
<rect x="620" y="320" width="20" height="20" fill="#807F83" />
<rect x="660" y="320" width="60" height="20" fill="#807F83" />
<rect x="760" y="320" width="20" height="40" fill="#807F83" />
<rect x="800" y="320" width="20" height="20" fill="#807F83" />
<rect x="80" y="340" width="40" height="20" fill="#807F83" />
<rect x="220" y="340" width="20" height="20" fill="#807F83" />
<rect x="340" y="340" width="40" height="20" fill="#807F83" />
<rect x="420" y="340" width="20" height="20" fill="#807F83" />
<rect x="460" y="340" width="60" height="20" fill="#807F83" />
<rect x="540" y="340" width="20" height="40" fill="#807F83" />
<rect x="580" y="340" width="100" height="20" fill="#807F83" />
<rect x="720" y="340" width="20" height="20" fill="#807F83" />
<rect x="80" y="360" width="20" height="20" fill="#807F83" />
<rect x="200" y="360" width="40" height="20" fill="#807F83" />
<rect x="260" y="360" width="60" height="20" fill="#807F83" />
<rect x="340" y="360" width="60" height="20" fill="#807F83" />
<rect x="440" y="360" width="20" height="20" fill="#807F83" />
<rect x="620" y="360" width="20" height="20" fill="#807F83" />
<rect x="680" y="360" width="40" height="20" fill="#807F83" />
<rect x="740" y="360" width="60" height="20" fill="#807F83" />
<rect x="120" y="380" width="20" height="20" fill="#807F83" />
<rect x="240" y="380" width="20" height="40" fill="#807F83" />
<rect x="320" y="380" width="40" height="20" fill="#807F83" />
<rect x="520" y="380" width="60" height="20" fill="#807F83" />
<rect x="600" y="380" width="40" height="20" fill="#807F83" />
<rect x="720" y="380" width="20" height="20" fill="#807F83" />
<rect x="760" y="380" width="20" height="20" fill="#807F83" />
<rect x="100" y="400" width="40" height="20" fill="#807F83" />
<rect x="160" y="400" width="60" height="20" fill="#807F83" />
<rect x="320" y="400" width="20" height="20" fill="#807F83" />
<rect x="360" y="400" width="20" height="20" fill="#807F83" />
<rect x="520" y="400" width="20" height="20" fill="#807F83" />
<rect x="560" y="400" width="20" height="20" fill="#807F83" />
<rect x="620" y="400" width="20" height="20" fill="#807F83" />
<rect x="680" y="400" width="40" height="20" fill="#807F83" />
<rect x="740" y="400" width="40" height="20" fill="#807F83" />
<rect x="180" y="420" width="20" height="20" fill="#807F83" />
<rect x="220" y="420" width="40" height="20" fill="#807F83" />
<rect x="280" y="420" width="80" height="20" fill="#807F83" />
<rect x="600" y="420" width="60" height="20" fill="#807F83" />
<rect x="720" y="420" width="60" height="20" fill="#807F83" />
<rect x="120" y="440" width="20" height="20" fill="#807F83" />
<rect x="160" y="440" width="80" height="20" fill="#807F83" />
<rect x="260" y="440" width="20" height="20" fill="#807F83" />
<rect x="320" y="440" width="20" height="40" fill="#807F83" />
<rect x="360" y="440" width="20" height="20" fill="#807F83" />
<rect x="580" y="440" width="80" height="20" fill="#807F83" />
<rect x="680" y="440" width="80" height="20" fill="#807F83" />
<rect x="180" y="460" width="20" height="20" fill="#807F83" />
<rect x="220" y="460" width="60" height="20" fill="#807F83" />
<rect x="560" y="460" width="20" height="20" fill="#807F83" />
<rect x="600" y="460" width="40" height="20" fill="#807F83" />
<rect x="660" y="460" width="80" height="20" fill="#807F83" />
<rect x="760" y="460" width="20" height="20" fill="#807F83" />
<rect x="800" y="460" width="20" height="20" fill="#807F83" />
<rect x="100" y="480" width="20" height="20" fill="#807F83" />
<rect x="160" y="480" width="20" height="20" fill="#807F83" />
<rect x="200" y="480" width="80" height="20" fill="#807F83" />
<rect x="360" y="480" width="20" height="20" fill="#807F83" />
<rect x="520" y="480" width="60" height="20" fill="#807F83" />
<rect x="660" y="480" width="40" height="20" fill="#807F83" />
<rect x="760" y="480" width="40" height="20" fill="#807F83" />
<rect x="80" y="500" width="20" height="40" fill="#807F83" />
<rect x="140" y="500" width="40" height="20" fill="#807F83" />
<rect x="280" y="500" width="20" height="20" fill="#807F83" />
<rect x="340" y="500" width="40" height="20" fill="#807F83" />
<rect x="520" y="500" width="40" height="20" fill="#807F83" />
<rect x="620" y="500" width="20" height="20" fill="#807F83" />
<rect x="720" y="500" width="20" height="20" fill="#807F83" />
<rect x="120" y="520" width="100" height="20" fill="#807F83" />
<rect x="240" y="520" width="40" height="20" fill="#807F83" />
<rect x="300" y="520" width="60" height="20" fill="#807F83" />
<rect x="400" y="520" width="40" height="20" fill="#807F83" />
<rect x="540" y="520" width="20" height="20" fill="#807F83" />
<rect x="580" y="520" width="80" height="20" fill="#807F83" />
<rect x="680" y="520" width="20" height="20" fill="#807F83" />
<rect x="120" y="540" width="80" height="20" fill="#807F83" />
<rect x="260" y="540" width="40" height="20" fill="#807F83" />
<rect x="340" y="540" width="40" height="20" fill="#807F83" />
<rect x="400" y="540" width="20" height="20" fill="#807F83" />
<rect x="460" y="540" width="20" height="20" fill="#807F83" />
<rect x="500" y="540" width="20" height="20" fill="#807F83" />
<rect x="580" y="540" width="20" height="20" fill="#807F83" />
<rect x="640" y="540" width="80" height="20" fill="#807F83" />
<rect x="760" y="540" width="60" height="20" fill="#807F83" />
<rect x="80" y="560" width="80" height="20" fill="#807F83" />
<rect x="180" y="560" width="40" height="20" fill="#807F83" />
<rect x="280" y="560" width="20" height="20" fill="#807F83" />
<rect x="320" y="560" width="60" height="20" fill="#807F83" />
<rect x="400" y="560" width="80" height="20" fill="#807F83" />
<rect x="500" y="560" width="40" height="20" fill="#807F83" />
<rect x="560" y="560" width="40" height="20" fill="#807F83" />
<rect x="620" y="560" width="60" height="20" fill="#807F83" />
<rect x="700" y="560" width="40" height="20" fill="#807F83" />
<rect x="760" y="560" width="40" height="20" fill="#807F83" />
<rect x="80" y="580" width="60" height="20" fill="#807F83" />
<rect x="280" y="580" width="40" height="20" fill="#807F83" />
<rect x="340" y="580" width="100" height="20" fill="#807F83" />
<rect x="480" y="580" width="20" height="20" fill="#807F83" />
<rect x="520" y="580" width="40" height="20" fill="#807F83" />
<rect x="600" y="580" width="20" height="20" fill="#807F83" />
<rect x="680" y="580" width="20" height="20" fill="#807F83" />
<rect x="740" y="580" width="40" height="20" fill="#807F83" />
<rect x="180" y="600" width="80" height="20" fill="#807F83" />
<rect x="360" y="600" width="40" height="20" fill="#807F83" />
<rect x="440" y="600" width="80" height="20" fill="#807F83" />
<rect x="540" y="600" width="20" height="20" fill="#807F83" />
<rect x="600" y="600" width="40" height="20" fill="#807F83" />
<rect x="660" y="600" width="20" height="20" fill="#807F83" />
<rect x="720" y="600" width="20" height="20" fill="#807F83" />
<rect x="120" y="620" width="60" height="20" fill="#807F83" />
<rect x="240" y="620" width="40" height="20" fill="#807F83" />
<rect x="300" y="620" width="80" height="20" fill="#807F83" />
<rect x="400" y="620" width="20" height="40" fill="#807F83" />
<rect x="460" y="620" width="20" height="20" fill="#807F83" />
<rect x="500" y="620" width="60" height="20" fill="#807F83" />
<rect x="600" y="620" width="60" height="20" fill="#807F83" />
<rect x="680" y="620" width="100" height="20" fill="#807F83" />
<rect x="80" y="640" width="40" height="20" fill="#807F83" />
<rect x="180" y="640" width="80" height="20" fill="#807F83" />
<rect x="280" y="640" width="60" height="20" fill="#807F83" />
<rect x="360" y="640" width="20" height="20" fill="#807F83" />
<rect x="480" y="640" width="100" height="20" fill="#807F83" />
<rect x="640" y="640" width="100" height="20" fill="#807F83" />
<rect x="240" y="660" width="40" height="20" fill="#807F83" />
<rect x="320" y="660" width="120" height="20" fill="#807F83" />
<rect x="460" y="660" width="20" height="20" fill="#807F83" />
<rect x="540" y="660" width="20" height="20" fill="#807F83" />
<rect x="580" y="660" width="40" height="20" fill="#807F83" />
<rect x="640" y="660" width="20" height="40" fill="#807F83" />
<rect x="720" y="660" width="40" height="20" fill="#807F83" />
<rect x="780" y="660" width="20" height="20" fill="#807F83" />
<rect x="80" y="680" width="140" height="20" fill="#807F83" />
<rect x="300" y="680" width="120" height="20" fill="#807F83" />
<rect x="500" y="680" width="100" height="20" fill="#807F83" />
<rect x="680" y="680" width="20" height="20" fill="#807F83" />
<rect x="720" y="680" width="60" height="20" fill="#807F83" />
<rect x="80" y="700" width="20" height="100" fill="#807F83" />
<rect x="200" y="700" width="20" height="100" fill="#807F83" />
<rect x="260" y="700" width="20" height="20" fill="#807F83" />
<rect x="300" y="700" width="20" height="40" fill="#807F83" />
<rect x="360" y="700" width="80" height="20" fill="#807F83" />
<rect x="480" y="700" width="40" height="20" fill="#807F83" />
<rect x="560" y="700" width="20" height="20" fill="#807F83" />
<rect x="600" y="700" width="60" height="20" fill="#807F83" />
<rect x="720" y="700" width="20" height="20" fill="#807F83" />
<rect x="760" y="700" width="20" height="20" fill="#807F83" />
<rect x="800" y="700" width="20" height="40" fill="#807F83" />
<rect x="120" y="720" width="60" height="60" fill="#807F83" />
<rect x="240" y="720" width="40" height="20" fill="#807F83" />
<rect x="380" y="720" width="20" height="20" fill="#807F83" />
<rect x="460" y="720" width="40" height="20" fill="#807F83" />
<rect x="540" y="720" width="20" height="20" fill="#807F83" />
<rect x="640" y="720" width="140" height="20" fill="#807F83" />
<rect x="260" y="740" width="60" height="20" fill="#807F83" />
<rect x="340" y="740" width="40" height="20" fill="#807F83" />
<rect x="400" y="740" width="20" height="40" fill="#807F83" />
<rect x="440" y="740" width="40" height="20" fill="#807F83" />
<rect x="500" y="740" width="40" height="20" fill="#807F83" />
<rect x="560" y="740" width="80" height="20" fill="#807F83" />
<rect x="680" y="740" width="40" height="60" fill="#807F83" />
<rect x="280" y="760" width="20" height="20" fill="#807F83" />
<rect x="460" y="760" width="20" height="20" fill="#807F83" />
<rect x="500" y="760" width="80" height="20" fill="#807F83" />
<rect x="600" y="760" width="20" height="40" fill="#807F83" />
<rect x="640" y="760" width="20" height="20" fill="#807F83" />
<rect x="780" y="760" width="20" height="20" fill="#807F83" />
<rect x="240" y="780" width="40" height="20" fill="#807F83" />
<rect x="360" y="780" width="40" height="20" fill="#807F83" />
<rect x="420" y="780" width="20" height="20" fill="#807F83" />
<rect x="460" y="780" width="60" height="20" fill="#807F83" />
<rect x="540" y="780" width="20" height="20" fill="#807F83" />
<rect x="760" y="780" width="40" height="20" fill="#807F83" />
<rect x="80" y="800" width="140" height="20" fill="#807F83" />
<rect x="260" y="800" width="40" height="20" fill="#807F83" />
<rect x="320" y="800" width="40" height="20" fill="#807F83" />
<rect x="380" y="800" width="80" height="20" fill="#807F83" />
<rect x="480" y="800" width="60" height="20" fill="#807F83" />
<rect x="620" y="800" width="20" height="20" fill="#807F83" />
<rect x="660" y="800" width="20" height="20" fill="#807F83" />
<rect x="760" y="800" width="60" height="20" fill="#807F83" />
<svg xmlns="http://www.w3.org/2000/svg" width="135" height="135" fill="currentColor" class="bi bi-mortarboard" viewBox="0 0 16 16" x="382.5" y="382.5" shape-rendering="geometricPrecision"><path d="M8.211 2.047a.5.5 0 0 0-.422 0l-7.5 3.5a.5.5 0 0 0 .025.917l7.5 3a.5.5 0 0 0 .372 0L14 7.14V13a1 1 0 0 0-1 1v2h3v-2a1 1 0 0 0-1-1V6.739l.686-.275a.5.5 0 0 0 .025-.917l-7.5-3.5ZM8 8.46 1.758 5.965 8 3.052l6.242 2.913L8 8.46Z" /><path d="M4.176 9.032a.5.5 0 0 0-.656.327l-.5 1.7a.5.5 0 0 0 .294.605l4.5 1.8a.5.5 0 0 0 .372 0l4.5-1.8a.5.5 0 0 0 .294-.605l-.5-1.7a.5.5 0 0 0-.656-.327L8 10.466 4.176 9.032Zm-.068 1.873.22-.748 3.496 1.311a.5.5 0 0 0 .352 0l3.496-1.311.22.748L8 12.46l-3.892-1.556Z" /></svg>
</svg>